# xmcd
#
# Track frame offsets: 
#        150
#        15887
#        29124
#        41571
#        57170
#        70125
#        93109
#        107375
#        120739
#        142975
#        161262
#        178996
#
# Disc length: 2510 seconds
#
# Revision: 0
# Processed by: cddbd v1.5.2PL0 Copyright (c) Steve Scherf et al.
# Submitted via: ExactAudioCopy v0.99pb4
#
DISCID=9309cc0c
DTITLE=The Golden Dogs - Big Eye Little Eye
DYEAR=2006
DGENRE=2008-06
TTITLE0=Dynamo
TTITLE1=Never Meant Any Harm
TTITLE2=Construction Worker
TTITLE3=Saint At The Gates
TTITLE4=Runouttaluck
TTITLE5=Painting Ape
TTITLE6=Strong
TTITLE7=Theresa
TTITLE8=Nineteen Hundred And Eighty-Five
TTITLE9=Life On The Line
TTITLE10=Force Of Nature
TTITLE11=Wheel Of Fortune
EXTD=
EXTT0=
EXTT1=
EXTT2=
EXTT3=
EXTT4=
EXTT5=
EXTT6=
EXTT7=
EXTT8=
EXTT9=
EXTT10=
EXTT11=
PLAYORDER=
